<svg width="100%" height="100%" viewBox="0 0 1356 318" version="1.1" xmlns="http://www.w3.org/2000/svg" xmlns:xlink="http://www.w3.org/1999/xlink" xml:space="preserve" xmlns:serif="http://www.serif.com/" style="fill-rule:evenodd;clip-rule:evenodd;stroke-miterlimit:10;">
    <g id="Artboard1" transform="matrix(1.01239,0,0,1.00986,-474.142,-520.812)">
        <rect x="468.337" y="515.725" width="1339.02" height="314.109" style="fill:none;"/>
        <clipPath id="_clip1">
            <rect x="468.337" y="515.725" width="1339.02" height="314.109"/>
        </clipPath>
        <g clip-path="url(#_clip1)">
            <g id="Layer-1" serif:id="Layer 1" transform="matrix(4.11566,0,0,4.12597,22.4586,5.75515)">
                <g transform="matrix(-1,0,0,1,544.983,-519.069)">
                    <rect x="68.204" y="624.58" width="408.575" height="111.799" style="fill:white;stroke:white;stroke-width:1px;"/>
                </g>
                <g transform="matrix(1,0,0,1,419.456,133.85)">
                    <path d="M0,55.121L-126.435,55.121C-126.878,55.121 -127.237,54.762 -127.237,54.319L-127.237,1.687C-127.237,0.756 -126.482,0 -125.55,0L-8.003,0C-2.598,0 1.785,4.383 1.785,9.789L1.785,53.336C1.785,54.322 0.986,55.121 0,55.121" style="fill:rgb(238,50,35);fill-rule:nonzero;"/>
                </g>
                <g transform="matrix(1,0,0,1,-1.49654,-0.0847096)">
                    <g transform="matrix(0.879756,0,0,0.879756,155.613,176.774)">
                        <path d="M0,-33.144C-2.486,-34.299 -5.204,-34.878 -8.157,-34.878C-11.602,-34.878 -14.616,-34.115 -17.2,-32.59C-19.783,-31.064 -21.789,-28.911 -23.216,-26.131C-24.644,-23.35 -25.356,-20.139 -25.356,-16.498C-25.356,-12.955 -24.631,-9.805 -23.179,-7.049C-21.728,-4.292 -19.685,-2.152 -17.052,-0.627C-14.42,0.899 -11.43,1.662 -8.083,1.662C-4.589,1.662 -1.587,0.972 0.923,-0.406C3.433,-1.783 5.573,-3.899 7.345,-6.754L15.243,0.406C12.586,4.097 9.239,6.866 5.204,8.71C1.168,10.556 -3.458,11.479 -8.674,11.479C-14.333,11.479 -19.366,10.274 -23.77,7.862C-28.174,5.452 -31.594,2.092 -34.03,-2.214C-36.466,-6.52 -37.66,-11.379 -37.61,-16.793C-37.61,-22.255 -36.381,-27.091 -33.919,-31.298C-31.459,-35.506 -28.014,-38.778 -23.585,-41.117C-19.156,-43.453 -14.063,-44.623 -8.305,-44.623C0.897,-44.623 8.157,-41.694 13.472,-35.838L6.09,-28.309C4.514,-30.375 2.484,-31.987 0,-33.144" style="fill:rgb(35,31,32);fill-rule:nonzero;"/>
                    </g>
                    <g transform="matrix(0.879756,0,0,0.879756,155.613,176.774)">
                        <path d="M0,-33.144C-2.486,-34.299 -5.204,-34.878 -8.157,-34.878C-11.602,-34.878 -14.616,-34.115 -17.2,-32.59C-19.783,-31.064 -21.789,-28.911 -23.216,-26.131C-24.644,-23.35 -25.356,-20.139 -25.356,-16.498C-25.356,-12.955 -24.631,-9.805 -23.179,-7.049C-21.728,-4.292 -19.685,-2.152 -17.052,-0.627C-14.42,0.899 -11.43,1.662 -8.083,1.662C-4.589,1.662 -1.587,0.972 0.923,-0.406C3.433,-1.783 5.573,-3.899 7.345,-6.754L15.243,0.406C12.586,4.097 9.239,6.866 5.204,8.71C1.168,10.556 -3.458,11.479 -8.674,11.479C-14.333,11.479 -19.366,10.274 -23.77,7.862C-28.174,5.452 -31.594,2.092 -34.03,-2.214C-36.466,-6.52 -37.66,-11.379 -37.61,-16.793C-37.61,-22.255 -36.381,-27.091 -33.919,-31.298C-31.459,-35.506 -28.014,-38.778 -23.585,-41.117C-19.156,-43.453 -14.063,-44.623 -8.305,-44.623C0.897,-44.623 8.157,-41.694 13.472,-35.838L6.09,-28.309C4.514,-30.375 2.484,-31.987 0,-33.144Z" style="fill:none;fill-rule:nonzero;stroke:rgb(35,31,32);stroke-width:1.14px;stroke-linecap:round;stroke-linejoin:round;"/>
                    </g>
                    <g transform="matrix(0.879756,0,0,0.879756,203.766,155.441)">
                        <path d="M0,15.353L-8.193,-4.947L-16.461,15.353L0,15.353ZM-36.835,34.989L-13.73,-19.636L-2.731,-19.636L20.374,34.989L7.677,34.989L3.691,25.097L-20.226,25.097L-24.212,34.989L-36.835,34.989Z" style="fill:rgb(35,31,32);fill-rule:nonzero;stroke:rgb(35,31,32);stroke-width:1.14px;stroke-linecap:round;stroke-linejoin:round;"/>
                    </g>
                    <g transform="matrix(0.879756,0,0,0.879756,228.509,186.223)">
                        <path d="M0,-54.625L11.885,-54.625L11.885,-9.817L35.506,-9.817L35.506,0L0,0L0,-54.625Z" style="fill:rgb(35,31,32);fill-rule:nonzero;stroke:rgb(35,31,32);stroke-width:1.14px;stroke-linecap:round;stroke-linejoin:round;"/>
                    </g>
                    <g transform="matrix(-0.879756,0,0,0.879756,577.892,-61.7506)">
                        <rect x="340.592" y="227.241" width="11.885" height="54.625" style="fill:rgb(35,31,32);stroke:rgb(35,31,32);stroke-width:1.14px;stroke-linecap:round;stroke-linejoin:round;"/>
                    </g>
                    <g transform="matrix(0.879756,0,0,0.879756,155.613,176.774)">
                        <path d="M0,-33.144C-2.486,-34.299 -5.204,-34.878 -8.157,-34.878C-11.602,-34.878 -14.616,-34.115 -17.2,-32.59C-19.783,-31.064 -21.789,-28.911 -23.216,-26.131C-24.644,-23.35 -25.356,-20.139 -25.356,-16.498C-25.356,-12.955 -24.631,-9.805 -23.179,-7.049C-21.728,-4.292 -19.685,-2.152 -17.052,-0.627C-14.42,0.899 -11.43,1.662 -8.083,1.662C-4.589,1.662 -1.587,0.972 0.923,-0.406C3.433,-1.783 5.573,-3.899 7.345,-6.754L15.243,0.406C12.586,4.097 9.239,6.866 5.204,8.71C1.168,10.556 -3.458,11.479 -8.674,11.479C-14.333,11.479 -19.366,10.274 -23.77,7.862C-28.174,5.452 -31.594,2.092 -34.03,-2.214C-36.466,-6.52 -37.66,-11.379 -37.61,-16.793C-37.61,-22.255 -36.381,-27.091 -33.919,-31.298C-31.459,-35.506 -28.014,-38.778 -23.585,-41.117C-19.156,-43.453 -14.063,-44.623 -8.305,-44.623C0.897,-44.623 8.157,-41.694 13.472,-35.838L6.09,-28.309C4.514,-30.375 2.484,-31.987 0,-33.144Z" style="fill:none;fill-rule:nonzero;stroke:rgb(35,31,32);stroke-width:1.14px;stroke-linecap:round;stroke-linejoin:round;"/>
                    </g>
                    <g transform="matrix(0.879756,0,0,0.879756,203.766,155.441)">
                        <path d="M0,15.353L-8.193,-4.947L-16.461,15.353L0,15.353ZM-36.835,34.989L-13.73,-19.636L-2.731,-19.636L20.374,34.989L7.677,34.989L3.691,25.097L-20.226,25.097L-24.212,34.989L-36.835,34.989Z" style="fill:rgb(35,31,32);fill-rule:nonzero;stroke:rgb(35,31,32);stroke-width:1.14px;stroke-linecap:round;stroke-linejoin:round;"/>
                    </g>
                    <g transform="matrix(0.879756,0,0,0.879756,228.509,186.223)">
                        <path d="M0,-54.625L11.885,-54.625L11.885,-9.817L35.506,-9.817L35.506,0L0,0L0,-54.625Z" style="fill:rgb(35,31,32);fill-rule:nonzero;stroke:rgb(35,31,32);stroke-width:1.14px;stroke-linecap:round;stroke-linejoin:round;"/>
                    </g>
                    <g transform="matrix(-0.879756,0,0,0.879756,577.892,-61.7506)">
                        <rect x="340.592" y="227.241" width="11.885" height="54.625" style="fill:rgb(35,31,32);stroke:rgb(35,31,32);stroke-width:1.14px;stroke-linecap:round;stroke-linejoin:round;"/>
                    </g>
                </g>
                <g transform="matrix(0.974096,0,0,0.974096,128.015,-476.578)">
                    <g transform="matrix(1,0,0,1,184.686,646.906)">
                        <path d="M0,-6.097L-1.879,-0.688L1.817,-0.688L0,-6.097ZM3.467,4.387L2.59,1.756L-2.694,1.756L-3.592,4.387L-6.621,4.387L-1.211,-10.484L1.065,-10.484L6.496,4.387L3.467,4.387Z" style="fill:white;fill-rule:nonzero;"/>
                    </g>
                    <g transform="matrix(1,0,0,1,204.892,639.492)">
                        <path d="M0,8.856C-0.286,9.497 -0.677,10.043 -1.172,10.496C-1.667,10.949 -2.247,11.3 -2.909,11.55C-3.571,11.801 -4.287,11.926 -5.054,11.926C-5.821,11.926 -6.536,11.801 -7.199,11.55C-7.861,11.3 -8.44,10.949 -8.936,10.496C-9.431,10.043 -9.822,9.497 -10.107,8.856C-10.393,8.216 -10.536,7.499 -10.536,6.705L-10.536,-3.07L-7.633,-3.07L-7.633,6.601C-7.633,7.464 -7.403,8.136 -6.944,8.616C-6.484,9.096 -5.858,9.336 -5.064,9.336C-4.271,9.336 -3.641,9.096 -3.174,8.616C-2.708,8.136 -2.474,7.464 -2.474,6.601L-2.474,-3.07L0.429,-3.07L0.429,6.705C0.429,7.499 0.286,8.216 0,8.856" style="fill:white;fill-rule:nonzero;"/>
                    </g>
                    <g transform="matrix(1,0,0,1,215.785,648.704)">
                        <path d="M0,-9.691L0,2.59L-2.903,2.59L-2.903,-9.691L-6.788,-9.691L-6.788,-12.281L3.885,-12.281L3.885,-9.691L0,-9.691Z" style="fill:white;fill-rule:nonzero;"/>
                    </g>
                    <g transform="matrix(1,0,0,1,230.76,643.858)">
                        <path d="M0,0C0,-0.71 -0.011,-1.298 -0.032,-1.765C-0.052,-2.231 -0.091,-2.617 -0.146,-2.924C-0.202,-3.23 -0.279,-3.478 -0.376,-3.665C-0.474,-3.854 -0.592,-4.023 -0.731,-4.177C-0.94,-4.414 -1.201,-4.605 -1.515,-4.752C-1.828,-4.897 -2.187,-4.971 -2.59,-4.971C-2.994,-4.971 -3.356,-4.897 -3.676,-4.752C-3.997,-4.605 -4.261,-4.414 -4.47,-4.177C-4.609,-4.023 -4.724,-3.854 -4.814,-3.665C-4.905,-3.478 -4.979,-3.23 -5.034,-2.924C-5.089,-2.617 -5.128,-2.231 -5.148,-1.765C-5.169,-1.298 -5.18,-0.71 -5.18,0C-5.18,0.71 -5.169,1.299 -5.148,1.765C-5.128,2.231 -5.089,2.618 -5.034,2.924C-4.979,3.23 -4.905,3.478 -4.814,3.666C-4.724,3.854 -4.609,4.024 -4.47,4.178C-4.261,4.414 -3.997,4.605 -3.676,4.752C-3.356,4.897 -2.994,4.971 -2.59,4.971C-2.187,4.971 -1.828,4.897 -1.515,4.752C-1.201,4.605 -0.94,4.414 -0.731,4.178C-0.592,4.024 -0.474,3.854 -0.376,3.666C-0.279,3.478 -0.202,3.23 -0.146,2.924C-0.091,2.618 -0.052,2.231 -0.032,1.765C-0.011,1.299 0,0.71 0,0M2.903,0C2.903,0.641 2.896,1.239 2.882,1.796C2.868,2.354 2.816,2.876 2.726,3.362C2.635,3.851 2.488,4.307 2.287,4.73C2.085,5.155 1.796,5.556 1.42,5.932C0.891,6.461 0.303,6.865 -0.345,7.144C-0.992,7.422 -1.741,7.561 -2.59,7.561C-3.439,7.561 -4.191,7.422 -4.846,7.144C-5.5,6.865 -6.092,6.461 -6.621,5.932C-6.997,5.556 -7.286,5.155 -7.488,4.73C-7.69,4.307 -7.833,3.851 -7.916,3.362C-8,2.876 -8.048,2.354 -8.063,1.796C-8.076,1.239 -8.083,0.641 -8.083,0C-8.083,-0.641 -8.076,-1.239 -8.063,-1.796C-8.048,-2.353 -8,-2.875 -7.916,-3.362C-7.833,-3.85 -7.69,-4.306 -7.488,-4.73C-7.286,-5.155 -6.997,-5.556 -6.621,-5.932C-6.092,-6.461 -5.5,-6.864 -4.846,-7.143C-4.191,-7.421 -3.439,-7.561 -2.59,-7.561C-1.741,-7.561 -0.992,-7.421 -0.345,-7.143C0.303,-6.864 0.891,-6.461 1.42,-5.932C1.796,-5.556 2.085,-5.155 2.287,-4.73C2.488,-4.306 2.635,-3.85 2.726,-3.362C2.816,-2.875 2.868,-2.353 2.882,-1.796C2.896,-1.239 2.903,-0.641 2.903,0" style="fill:white;fill-rule:nonzero;"/>
                    </g>
                </g>
                <g transform="matrix(0.975129,0,0,0.975129,63.3646,-454.683)">
                    <g transform="matrix(1,0,0,1,254.382,638.991)">
                        <path d="M0,9.733C-0.32,10.318 -0.717,10.809 -1.19,11.206C-1.664,11.603 -2.207,11.906 -2.82,12.115C-3.433,12.323 -4.094,12.427 -4.804,12.427C-6.391,12.427 -7.728,11.884 -8.814,10.798C-9.455,10.158 -9.858,9.414 -10.025,8.564C-10.192,7.728 -10.276,6.496 -10.276,4.867C-10.276,3.238 -10.192,2.005 -10.025,1.17C-9.858,0.321 -9.455,-0.424 -8.814,-1.065C-7.728,-2.151 -6.391,-2.694 -4.804,-2.694C-3.37,-2.694 -2.162,-2.289 -1.18,-1.483C-0.198,-0.675 0.417,0.488 0.668,2.005L-2.277,2.005C-2.43,1.365 -2.708,0.853 -3.112,0.47C-3.516,0.087 -4.073,-0.104 -4.783,-0.104C-5.591,-0.104 -6.21,0.154 -6.642,0.669C-6.795,0.836 -6.92,1.013 -7.018,1.202C-7.115,1.389 -7.188,1.633 -7.237,1.932C-7.286,2.232 -7.321,2.615 -7.341,3.081C-7.362,3.547 -7.373,4.143 -7.373,4.867C-7.373,5.591 -7.362,6.186 -7.341,6.653C-7.321,7.12 -7.286,7.503 -7.237,7.801C-7.188,8.101 -7.115,8.344 -7.018,8.533C-6.92,8.72 -6.795,8.898 -6.642,9.065C-6.21,9.581 -5.591,9.837 -4.783,9.837C-4.073,9.837 -3.516,9.646 -3.112,9.263C-2.708,8.88 -2.43,8.369 -2.277,7.728L0.668,7.728C0.543,8.48 0.32,9.149 0,9.733" style="fill:white;fill-rule:nonzero;"/>
                    </g>
                    <g transform="matrix(1,0,0,1,266.037,643.858)">
                        <path d="M0,0C0,-0.71 -0.011,-1.298 -0.032,-1.765C-0.052,-2.231 -0.091,-2.617 -0.146,-2.924C-0.202,-3.23 -0.279,-3.478 -0.376,-3.665C-0.474,-3.854 -0.592,-4.023 -0.731,-4.177C-0.94,-4.414 -1.201,-4.605 -1.515,-4.752C-1.828,-4.897 -2.187,-4.971 -2.59,-4.971C-2.994,-4.971 -3.356,-4.897 -3.676,-4.752C-3.997,-4.605 -4.261,-4.414 -4.47,-4.177C-4.609,-4.023 -4.724,-3.854 -4.814,-3.665C-4.905,-3.478 -4.979,-3.23 -5.034,-2.924C-5.089,-2.617 -5.128,-2.231 -5.148,-1.765C-5.169,-1.298 -5.18,-0.71 -5.18,0C-5.18,0.71 -5.169,1.299 -5.148,1.765C-5.128,2.231 -5.089,2.618 -5.034,2.924C-4.979,3.23 -4.905,3.478 -4.814,3.666C-4.724,3.854 -4.609,4.024 -4.47,4.178C-4.261,4.414 -3.997,4.605 -3.676,4.752C-3.356,4.897 -2.994,4.971 -2.59,4.971C-2.187,4.971 -1.828,4.897 -1.515,4.752C-1.201,4.605 -0.94,4.414 -0.731,4.178C-0.592,4.024 -0.474,3.854 -0.376,3.666C-0.279,3.478 -0.202,3.23 -0.146,2.924C-0.091,2.618 -0.052,2.231 -0.032,1.765C-0.011,1.299 0,0.71 0,0M2.903,0C2.903,0.641 2.896,1.239 2.882,1.796C2.868,2.354 2.816,2.876 2.726,3.362C2.635,3.851 2.488,4.307 2.287,4.73C2.085,5.155 1.796,5.556 1.42,5.932C0.891,6.461 0.303,6.865 -0.345,7.144C-0.992,7.422 -1.741,7.561 -2.59,7.561C-3.439,7.561 -4.191,7.422 -4.846,7.144C-5.5,6.865 -6.092,6.461 -6.621,5.932C-6.997,5.556 -7.286,5.155 -7.488,4.73C-7.69,4.307 -7.833,3.851 -7.916,3.362C-8,2.876 -8.048,2.354 -8.063,1.796C-8.076,1.239 -8.083,0.641 -8.083,0C-8.083,-0.641 -8.076,-1.239 -8.063,-1.796C-8.048,-2.353 -8,-2.875 -7.916,-3.362C-7.833,-3.85 -7.69,-4.306 -7.488,-4.73C-7.286,-5.155 -6.997,-5.556 -6.621,-5.932C-6.092,-6.461 -5.5,-6.864 -4.846,-7.143C-4.191,-7.421 -3.439,-7.561 -2.59,-7.561C-1.741,-7.561 -0.992,-7.421 -0.345,-7.143C0.303,-6.864 0.891,-6.461 1.42,-5.932C1.796,-5.556 2.085,-5.155 2.287,-4.73C2.488,-4.306 2.635,-3.85 2.726,-3.362C2.816,-2.875 2.868,-2.353 2.882,-1.796C2.896,-1.239 2.903,-0.641 2.903,0" style="fill:white;fill-rule:nonzero;"/>
                    </g>
                    <g transform="matrix(1,0,0,1,273.472,636.423)">
                        <path d="M0,14.871L0,0L2.903,0L2.903,12.281L9.649,12.281L9.649,14.871L0,14.871Z" style="fill:white;fill-rule:nonzero;"/>
                    </g>
                    <g transform="matrix(1,0,0,1,287.047,636.423)">
                        <path d="M0,14.871L0,0L2.903,0L2.903,12.281L9.649,12.281L9.649,14.871L0,14.871Z" style="fill:white;fill-rule:nonzero;"/>
                    </g>
                    <g transform="matrix(1,0,0,1,0,445.827)">
                        <rect x="300.623" y="190.596" width="2.903" height="14.871" style="fill:white;"/>
                    </g>
                    <g transform="matrix(1,0,0,1,318.168,640.809)">
                        <path d="M0,6.099C0,6.823 -0.143,7.463 -0.428,8.02C-0.714,8.578 -1.104,9.047 -1.598,9.43C-2.092,9.813 -2.673,10.106 -3.342,10.307C-4.01,10.509 -4.734,10.61 -5.514,10.61C-6.642,10.61 -7.648,10.467 -8.532,10.182C-9.417,9.897 -10.221,9.385 -10.944,8.647L-9.065,6.767C-8.591,7.241 -8.048,7.568 -7.436,7.748C-6.823,7.93 -6.169,8.02 -5.472,8.02C-4.609,8.02 -3.955,7.864 -3.509,7.55C-3.063,7.237 -2.841,6.781 -2.841,6.182C-2.841,5.639 -2.994,5.221 -3.3,4.929C-3.454,4.79 -3.624,4.682 -3.812,4.605C-4,4.529 -4.268,4.462 -4.616,4.407L-6.412,4.157C-7.679,3.975 -8.64,3.565 -9.294,2.924C-10.004,2.214 -10.36,1.24 -10.36,-0C-10.36,-0.669 -10.242,-1.277 -10.004,-1.828C-9.768,-2.378 -9.427,-2.851 -8.981,-3.248C-8.536,-3.645 -7.993,-3.955 -7.352,-4.177C-6.712,-4.4 -5.988,-4.511 -5.18,-4.511C-4.149,-4.511 -3.251,-4.379 -2.486,-4.115C-1.72,-3.85 -1.017,-3.405 -0.376,-2.778L-2.214,-0.961C-2.688,-1.406 -3.192,-1.688 -3.729,-1.806C-4.265,-1.924 -4.776,-1.984 -5.264,-1.984C-6.043,-1.984 -6.621,-1.799 -6.997,-1.43C-7.373,-1.062 -7.561,-0.62 -7.561,-0.104C-7.561,0.09 -7.526,0.279 -7.457,0.459C-7.387,0.641 -7.276,0.808 -7.123,0.96C-6.969,1.1 -6.778,1.222 -6.548,1.327C-6.318,1.431 -6.05,1.503 -5.744,1.545L-3.989,1.796C-3.307,1.894 -2.744,2.037 -2.298,2.224C-1.852,2.412 -1.469,2.653 -1.149,2.945C-0.745,3.321 -0.453,3.774 -0.271,4.302C-0.091,4.831 0,5.43 0,6.099" style="fill:white;fill-rule:nonzero;"/>
                    </g>
                    <g transform="matrix(1,0,0,1,0,445.827)">
                        <rect x="322.469" y="190.596" width="2.903" height="14.871" style="fill:white;"/>
                    </g>
                    <g transform="matrix(1,0,0,1,337.988,643.858)">
                        <path d="M0,0C0,-0.71 -0.011,-1.298 -0.032,-1.765C-0.052,-2.231 -0.091,-2.617 -0.146,-2.924C-0.202,-3.23 -0.279,-3.478 -0.376,-3.665C-0.474,-3.854 -0.592,-4.023 -0.731,-4.177C-0.94,-4.414 -1.201,-4.605 -1.515,-4.752C-1.828,-4.897 -2.187,-4.971 -2.59,-4.971C-2.994,-4.971 -3.356,-4.897 -3.676,-4.752C-3.997,-4.605 -4.261,-4.414 -4.47,-4.177C-4.609,-4.023 -4.724,-3.854 -4.814,-3.665C-4.905,-3.478 -4.979,-3.23 -5.034,-2.924C-5.089,-2.617 -5.128,-2.231 -5.148,-1.765C-5.169,-1.298 -5.18,-0.71 -5.18,0C-5.18,0.71 -5.169,1.299 -5.148,1.765C-5.128,2.231 -5.089,2.618 -5.034,2.924C-4.979,3.23 -4.905,3.478 -4.814,3.666C-4.724,3.854 -4.609,4.024 -4.47,4.178C-4.261,4.414 -3.997,4.605 -3.676,4.752C-3.356,4.897 -2.994,4.971 -2.59,4.971C-2.187,4.971 -1.828,4.897 -1.515,4.752C-1.201,4.605 -0.94,4.414 -0.731,4.178C-0.592,4.024 -0.474,3.854 -0.376,3.666C-0.279,3.478 -0.202,3.23 -0.146,2.924C-0.091,2.618 -0.052,2.231 -0.032,1.765C-0.011,1.299 0,0.71 0,0M2.903,0C2.903,0.641 2.896,1.239 2.882,1.796C2.868,2.354 2.816,2.876 2.726,3.362C2.635,3.851 2.488,4.307 2.287,4.73C2.085,5.155 1.796,5.556 1.42,5.932C0.891,6.461 0.303,6.865 -0.345,7.144C-0.992,7.422 -1.741,7.561 -2.59,7.561C-3.439,7.561 -4.191,7.422 -4.846,7.144C-5.5,6.865 -6.092,6.461 -6.621,5.932C-6.997,5.556 -7.286,5.155 -7.488,4.73C-7.69,4.307 -7.833,3.851 -7.916,3.362C-8,2.876 -8.048,2.354 -8.063,1.796C-8.076,1.239 -8.083,0.641 -8.083,0C-8.083,-0.641 -8.076,-1.239 -8.063,-1.796C-8.048,-2.353 -8,-2.875 -7.916,-3.362C-7.833,-3.85 -7.69,-4.306 -7.488,-4.73C-7.286,-5.155 -6.997,-5.556 -6.621,-5.932C-6.092,-6.461 -5.5,-6.864 -4.846,-7.143C-4.191,-7.421 -3.439,-7.561 -2.59,-7.561C-1.741,-7.561 -0.992,-7.421 -0.345,-7.143C0.303,-6.864 0.891,-6.461 1.42,-5.932C1.796,-5.556 2.085,-5.155 2.287,-4.73C2.488,-4.306 2.635,-3.85 2.726,-3.362C2.816,-2.875 2.868,-2.353 2.882,-1.796C2.896,-1.239 2.903,-0.641 2.903,0" style="fill:white;fill-rule:nonzero;"/>
                    </g>
                    <g transform="matrix(1,0,0,1,354.216,636.423)">
                        <path d="M0,14.871L-5.89,5.744L-5.89,14.871L-8.793,14.871L-8.793,0L-6.203,0L-0.313,9.106L-0.313,0L2.59,0L2.59,14.871L0,14.871Z" style="fill:white;fill-rule:nonzero;"/>
                    </g>
                </g>
            </g>
        </g>
    </g>
</svg>
